<?xml version="1.0" encoding="UTF-8" standalone="no"?><!DOCTYPE svg PUBLIC "-//W3C//DTD SVG 1.1//EN" "http://www.w3.org/Graphics/SVG/1.1/DTD/svg11.dtd"><svg width="100%" height="100%" viewBox="0 0 752 385" version="1.1" xmlns="http://www.w3.org/2000/svg" xmlns:xlink="http://www.w3.org/1999/xlink" xml:space="preserve" xmlns:serif="http://www.serif.com/" style="fill-rule:evenodd;clip-rule:evenodd;stroke-linejoin:round;stroke-miterlimit:2;"><g id="Symbol"><path d="M363.05,0.041c-5.672,3.432 -68.32,25.285 -81.255,106.743c-13.094,82.459 80.898,139.635 153.903,81.034c15.487,-12.431 23.003,-27.371 22.419,-22.806c-0.419,3.275 -0.653,51.532 -44.772,76.446c-78.352,44.246 -200.051,-39.487 -169.675,-147.184c1.551,-5.5 10.165,-36.041 37.807,-60.601c31.348,-27.853 77.181,-34.259 81.573,-33.632Z" style="fill:#154b76;"/><path d="M292.16,92.168c23.619,-74.917 86.004,-92.577 109.465,-92.119c16.54,0.323 56.284,5.576 85.882,45.273c3.002,4.026 -1.433,6.014 -6.354,10.817c-22.915,22.366 -23.627,24.275 -25.323,22.182c-3.992,-4.925 -24.895,-35.938 -68.792,-34.034c-68.04,2.951 -101.138,93.08 -46.028,138.223c23.472,19.227 47.509,18.449 51.91,18.306c0,0 0.127,1.22 -0.507,1.32c-89.496,14.109 -116.023,-59.953 -100.254,-109.969Z" style="fill:#ee8022;"/><path d="M413.561,250.067c0.036,-0.071 -0.411,-0.997 0.769,-1.512c46.541,-20.305 53.991,-82.25 50.689,-94.146c-0.532,-1.916 -48.749,-0.59 -77.317,-0.927c-4.183,-0.049 0.278,-20.958 14.11,-32.482c12.38,-10.314 13.982,-9.009 107.53,-9.403c1.169,-0.005 3.294,-0.014 2.641,14.374c-4.215,92.757 -90.178,123.558 -98.422,124.095Z" style="fill:#ed8023;"/></g><g transform="matrix(0.227903,0,0,0.227903,-89.721632,-160.854628)"><text x="377.327px" y="2386.661px" style="font-family:'Gadugi-Bold', 'Gadugi', sans-serif;font-weight:700;font-size:452.687px;fill:#154b76;">C</text><g transform="matrix(0.93,0,0,1,44.60259,0)"><text x="637.18px" y="2386.661px" style="font-family:'Gadugi-Bold', 'Gadugi', sans-serif;font-weight:700;font-size:452.687px;fill:#154b76;">O</text></g><g transform="matrix(0.86,0,0,1,130.952323,0)"><text x="935.374px" y="2386.661px" style="font-family:'Gadugi-Bold', 'Gadugi', sans-serif;font-weight:700;font-size:452.687px;fill:#154b76;">N</text></g><text x="1231.265px" y="2386.661px" style="font-family:'Gadugi-Bold', 'Gadugi', sans-serif;font-weight:700;font-size:452.687px;fill:#154b76;">T</text><g transform="matrix(0.95,0,0,1,74.146544,0)"><text x="1482.931px" y="2386.661px" style="font-family:'Gadugi-Bold', 'Gadugi', sans-serif;font-weight:700;font-size:452.687px;fill:#154b76;">E</text></g><g transform="matrix(0.86,0,0,1,237.848066,0)"><text x="1698.915px" y="2386.661px" style="font-family:'Gadugi-Bold', 'Gadugi', sans-serif;font-weight:700;font-size:452.687px;fill:#154b76;">N</text></g><text x="1994.806px" y="2386.661px" style="font-family:'Gadugi-Bold', 'Gadugi', sans-serif;font-weight:700;font-size:452.687px;fill:#154b76;">T</text><g transform="matrix(0.95,0,0,1,116.791138,0)"><text x="2335.823px" y="2386.661px" style="font-family:'Gadugi-Bold', 'Gadugi', sans-serif;font-weight:700;font-size:452.687px;fill:#ed8023;">G<tspan x="2635.021px 2939.744px 3212.639px " y="2386.661px 2386.661px 2386.661px ">URU</tspan></text></g><g transform="matrix(0.97,0,0,1,103.748563,0)"><g transform="matrix(452.687027,0,0,452.687027,3712.037748,2386.661168)"></g><text x="3458.285px" y="2386.661px" style="font-family:'Gadugi-Bold', 'Gadugi', sans-serif;font-weight:700;font-size:452.687px;fill:#ed8023;">S</text></g></g></svg>