<?xml version="1.0" encoding="UTF-8" standalone="no"?><!DOCTYPE svg PUBLIC "-//W3C//DTD SVG 1.1//EN" "http://www.w3.org/Graphics/SVG/1.1/DTD/svg11.dtd"><svg width="100%" height="100%" viewBox="0 0 1247 164" version="1.1" xmlns="http://www.w3.org/2000/svg" xmlns:xlink="http://www.w3.org/1999/xlink" xml:space="preserve" xmlns:serif="http://www.serif.com/" style="fill-rule:evenodd;clip-rule:evenodd;stroke-linejoin:round;stroke-miterlimit:2;"><g id="Symbol"><path d="M80.271,0.026c-3.667,2.219 -44.174,16.349 -52.538,69.018c-8.467,53.317 52.307,90.285 99.51,52.395c10.014,-8.038 14.873,-17.698 14.496,-14.746c-0.271,2.118 -0.423,33.32 -28.949,49.429c-50.661,28.608 -129.349,-25.531 -109.709,-95.166c1.003,-3.556 6.573,-23.304 24.445,-39.184c20.269,-18.009 49.903,-22.151 52.744,-21.746Z" style="fill:#154b76;"/><path d="M34.435,59.594c15.272,-48.44 55.609,-59.858 70.778,-59.562c10.694,0.209 36.392,3.605 55.53,29.273c1.941,2.603 -0.927,3.889 -4.108,6.994c-14.817,14.461 -15.277,15.695 -16.373,14.343c-2.581,-3.185 -16.097,-23.237 -44.479,-22.006c-43.993,1.908 -65.394,60.184 -29.761,89.372c15.177,12.432 30.719,11.929 33.564,11.836c0,0 0.082,0.789 -0.328,0.854c-57.866,9.122 -75.018,-38.765 -64.823,-71.104Z" style="fill:#ee8022;"/><path d="M112.93,161.688c0.023,-0.046 -0.266,-0.645 0.497,-0.977c30.092,-13.129 34.91,-53.181 32.775,-60.873c-0.344,-1.239 -31.52,-0.382 -49.992,-0.599c-2.705,-0.032 0.18,-13.551 9.124,-21.002c8.005,-6.669 9.04,-5.825 69.527,-6.08c0.756,-0.003 2.13,-0.009 1.707,9.294c-2.725,59.975 -58.307,79.89 -63.638,80.238Z" style="fill:#ed8023;"/></g><g transform="matrix(0.30629,0,0,0.30629,116.92221,-600.537448)"><text x="377.327px" y="2386.661px" style="font-family:'Gadugi-Bold', 'Gadugi', sans-serif;font-weight:700;font-size:452.687px;fill:#154b76;">C</text><g transform="matrix(0.93,0,0,1,44.60259,0)"><text x="637.18px" y="2386.661px" style="font-family:'Gadugi-Bold', 'Gadugi', sans-serif;font-weight:700;font-size:452.687px;fill:#154b76;">O</text></g><g transform="matrix(0.86,0,0,1,130.952323,0)"><text x="935.374px" y="2386.661px" style="font-family:'Gadugi-Bold', 'Gadugi', sans-serif;font-weight:700;font-size:452.687px;fill:#154b76;">N</text></g><text x="1231.265px" y="2386.661px" style="font-family:'Gadugi-Bold', 'Gadugi', sans-serif;font-weight:700;font-size:452.687px;fill:#154b76;">T</text><g transform="matrix(0.95,0,0,1,74.146544,0)"><text x="1482.931px" y="2386.661px" style="font-family:'Gadugi-Bold', 'Gadugi', sans-serif;font-weight:700;font-size:452.687px;fill:#154b76;">E</text></g><g transform="matrix(0.86,0,0,1,237.848066,0)"><text x="1698.915px" y="2386.661px" style="font-family:'Gadugi-Bold', 'Gadugi', sans-serif;font-weight:700;font-size:452.687px;fill:#154b76;">N</text></g><text x="1994.806px" y="2386.661px" style="font-family:'Gadugi-Bold', 'Gadugi', sans-serif;font-weight:700;font-size:452.687px;fill:#154b76;">T</text><g transform="matrix(0.95,0,0,1,116.791138,0)"><text x="2335.823px" y="2386.661px" style="font-family:'Gadugi-Bold', 'Gadugi', sans-serif;font-weight:700;font-size:452.687px;fill:#ed8023;">G<tspan x="2635.021px 2939.744px 3212.639px " y="2386.661px 2386.661px 2386.661px ">URU</tspan></text></g><g transform="matrix(0.97,0,0,1,103.748563,0)"><g transform="matrix(452.687027,0,0,452.687027,3712.037748,2386.661168)"></g><text x="3458.285px" y="2386.661px" style="font-family:'Gadugi-Bold', 'Gadugi', sans-serif;font-weight:700;font-size:452.687px;fill:#ed8023;">S</text></g></g></svg>